<svg xmlns="http://www.w3.org/2000/svg" viewBox="0 0 32 32" role="img" aria-label="Email Link Host">
  <rect width="32" height="32" rx="8" fill="#0D7377"/>
  <path fill="#F4FAFA" d="M7 9.5A1.5 1.5 0 0 1 8.5 8h15A1.5 1.5 0 0 1 25 9.5v13a1.5 1.5 0 0 1-1.5 1.5h-15A1.5 1.5 0 0 1 7 22.5v-13z"/>
  <path fill="none" stroke="#0B3D40" stroke-width="1.6" stroke-linecap="round" stroke-linejoin="round" d="M8.8 10.2 16 15.6l7.2-5.4"/>
  <circle cx="22.5" cy="22.5" r="6.2" fill="#0B3D40"/>
  <path fill="none" stroke="#7FE0E0" stroke-width="1.5" stroke-linecap="round" d="M20.4 24c-.8-.8-.8-2.1 0-2.9l1.3-1.3c.8-.8 2.1-.8 2.9 0"/>
  <path fill="none" stroke="#7FE0E0" stroke-width="1.5" stroke-linecap="round" d="M24.6 21c.8.8.8 2.1 0 2.9l-1.3 1.3c-.8.8-2.1.8-2.9 0"/>
</svg>
