<svg xmlns="http://www.w3.org/2000/svg" viewBox="0 0 64 64" role="img" aria-label="Email Link Host">
  <defs>
    <linearGradient id="elhg" x1="8" y1="6" x2="56" y2="58" gradientUnits="userSpaceOnUse">
      <stop stop-color="#0D7377"/>
      <stop offset="1" stop-color="#14919B"/>
    </linearGradient>
  </defs>
  <rect width="64" height="64" rx="16" fill="url(#elhg)"/>
  <!-- envelope -->
  <path fill="#F4FAFA" d="M14 20.5c0-1.4 1.1-2.5 2.5-2.5h31c1.4 0 2.5 1.1 2.5 2.5v23c0 1.4-1.1 2.5-2.5 2.5h-31c-1.4 0-2.5-1.1-2.5-2.5v-23z"/>
  <path fill="none" stroke="#0B3D40" stroke-width="2.2" stroke-linecap="round" stroke-linejoin="round" d="M16.5 21.5 32 32.5l15.5-11"/>
  <!-- link chain badge -->
  <circle cx="44" cy="44" r="12" fill="#0B3D40"/>
  <path fill="none" stroke="#7FE0E0" stroke-width="2.4" stroke-linecap="round" d="M40.2 46.8c-1.5-1.5-1.5-3.9 0-5.4l2.4-2.4c1.5-1.5 3.9-1.5 5.4 0"/>
  <path fill="none" stroke="#7FE0E0" stroke-width="2.4" stroke-linecap="round" d="M47.8 41.2c1.5 1.5 1.5 3.9 0 5.4l-2.4 2.4c-1.5 1.5-3.9 1.5-5.4 0"/>
</svg>
